<svg width="32" height="39" viewBox="0 0 32 39" fill="none" xmlns="http://www.w3.org/2000/svg">
<path d="M16 8.66675C13.3629 8.66675 10.785 9.44873 8.59239 10.9138C6.39974 12.3789 4.69077 14.4613 3.6816 16.8976C2.67243 19.334 2.40839 22.0149 2.92286 24.6013C3.43733 27.1877 4.70721 29.5635 6.57191 31.4282C8.43661 33.2929 10.8124 34.5627 13.3988 35.0772C15.9852 35.5917 18.6661 35.3276 21.1024 34.3185C23.5388 33.3093 25.6212 31.6003 27.0863 29.4077C28.5513 27.215 29.3333 24.6372 29.3333 22.0001C29.3333 20.2491 28.9885 18.5153 28.3184 16.8976C27.6483 15.28 26.6662 13.8101 25.4281 12.572C24.19 11.3339 22.7201 10.3518 21.1024 9.68169C19.4848 9.01162 17.751 8.66675 16 8.66675ZM16 32.6667C13.171 32.6667 10.4579 31.5429 8.45752 29.5426C6.45714 27.5422 5.33333 24.8291 5.33333 22.0001C5.33038 19.6312 6.12402 17.3301 7.58666 15.4667L22.5333 30.4134C20.6699 31.8761 18.3689 32.6697 16 32.6667ZM24.4133 28.5334L9.46666 13.5867C11.3301 12.1241 13.6311 11.3305 16 11.3334C18.829 11.3334 21.5421 12.4572 23.5425 14.4576C25.5429 16.458 26.6667 19.1711 26.6667 22.0001C26.6696 24.369 25.876 26.67 24.4133 28.5334Z" fill="#EB5757"/>
</svg>
