<?xml version="1.0" encoding="utf-8" ?><svg xmlns="http://www.w3.org/2000/svg" xmlns:xlink="http://www.w3.org/1999/xlink" width="1047" height="1047" viewBox="0 0 1047 1047"><path fill="white" transform="scale(1.02219 1.02219)" d="M0 0L1024 0L1024 1024L0 1024L0 0Z"/><path fill="#0F3769" transform="scale(1.02219 1.02219)" d="M501.764 57.3636C716.787 51.7088 895.647 221.506 901.17 436.533C906.692 651.56 736.785 830.315 521.755 835.706C306.912 841.092 128.345 671.364 122.827 456.524C117.309 241.684 286.927 63.0135 501.764 57.3636Z"/><path fill="white" transform="scale(1.02219 1.02219)" d="M492.354 75.5245C697.552 64.7487 872.558 222.523 883.033 427.737C893.508 632.951 735.477 807.726 530.248 817.9C325.444 828.053 151.11 670.42 140.657 465.631C130.204 260.842 287.581 86.278 492.354 75.5245Z"/><path fill="#D5EBF1" transform="scale(1.02219 1.02219)" d="M502.164 127.711C678.819 122.535 826.281 261.426 831.68 438.074C837.079 614.722 698.375 762.359 521.734 767.981C344.777 773.613 196.819 634.607 191.41 457.643C186.001 280.68 325.194 132.897 502.164 127.711Z"/><path fill="#0F3769" transform="scale(1.02219 1.02219)" d="M326.351 245.711C328 245.508 331.346 245.517 333.105 245.504L591.37 245.731L655.278 245.631C669.602 245.576 685.696 244.771 699.752 247.05C732.367 252.34 759.347 280.029 766.123 312.003C768.752 324.411 768.018 339.463 768.006 352.289L768.015 396.657L767.918 567.516C767.811 593.166 760.325 612.785 741.857 630.955C730.923 641.663 717.31 649.234 702.445 652.875C690.203 655.811 666.501 654.99 652.789 654.96L589.125 654.739L577.496 654.713C563.4 677.688 551.49 702.821 537.914 726.146C534.418 732.153 528.777 743.835 525.027 748.966C523.215 751.429 520.903 753.481 518.242 754.988C508.902 760.273 497.452 758.097 491.279 749.352C484.418 739.632 478.961 728.19 473.384 717.662C462.48 696.703 451.359 675.858 440.023 655.129L358.804 654.831C345.226 654.766 325.758 655.841 313.105 653.082C299.538 650.021 286.895 643.771 276.224 634.852C262.033 622.945 249.688 599.922 248.84 581.638C248.082 565.325 248.512 546.782 248.491 530.254L248.438 427.37L248.376 360.442C248.315 348.226 247.477 327.56 249.314 316.345C251.683 301.274 258.181 287.153 268.087 275.549C282.812 258.307 303.754 247.582 326.351 245.711Z"/><path fill="#D5EBF1" transform="scale(1.02219 1.02219)" d="M510.981 262.25L665.412 262.193C691.904 262.083 711.487 261.648 731.757 281.662C752.551 302.194 751.01 321.114 751.236 347.676C751.409 366.079 751.462 384.482 751.393 402.885L751.328 568.02C751.176 587.392 744.256 604.519 730.358 618.15C721.183 627.165 709.688 633.459 697.15 636.334C686.425 638.79 665.197 637.699 653.183 637.715C624.928 637.839 596.673 637.751 568.419 637.452C563.235 644.756 557.122 656.323 552.662 664.346L526.303 712.674C521.749 721.128 516.747 731.497 511.117 739.274C509.892 740.966 508.256 741.062 506.289 741.239C504.562 740.131 503.29 738.522 502.349 736.71C485.179 703.648 466.423 670.938 449.533 637.784C441.033 637.337 427.707 637.853 418.714 637.889L357.43 638.034C344.337 638.039 329.815 638.901 317.041 636.314C284.987 629.823 264.183 603.144 264.601 570.664C264.868 549.902 264.626 528.448 264.636 507.552L264.471 407.191L264.518 355.796C264.536 343.284 263.715 325.256 266.55 313.469C271.919 291.142 291.818 270.505 314.015 264.527C324.351 261.744 335.235 262.374 345.735 262.371L381.247 262.388L510.981 262.25Z"/><path fill="#0F3769" transform="scale(1.02219 1.02219)" d="M506.836 305.491C514.034 307.213 534.368 316.394 542.089 319.738L604.269 346.432C638.003 360.429 671.652 374.629 705.215 389.031C714.522 393.069 735.808 401.375 743.196 405.715C743.843 407.082 743.732 409.121 743.398 410.477C743.131 411.56 739.431 413.577 738.409 414.034C727.491 418.918 716.321 423.573 705.296 428.193C686.608 435.932 668.01 443.885 649.504 452.05C649.695 473.321 649.74 494.592 649.637 515.863C649.637 526.084 650.009 536.915 649.514 547.101C649.429 548.62 648.737 550.716 647.4 551.666C611.369 577.263 552.213 586.814 510.938 587.378C472.61 588.024 434.502 581.462 398.597 568.034C389.839 564.735 371.751 558.411 370.57 547.377C370.178 543.715 370.389 538.42 370.426 534.625C370.254 507.478 370.249 480.329 370.411 453.182C364.544 450.927 358.732 448.533 352.978 446.002L353.023 517.865C353.013 527.035 352.279 540.389 353.475 549.987C354.489 558.132 375.889 587.25 371.598 593.894C361.52 609.498 328.948 609.716 322.399 589.977C325.555 577.883 337.869 561.313 341.329 550.376C342.914 545.364 342.037 523.094 342.042 516.632L342.203 441.916C332.946 436.517 280.139 416.195 276.584 411.155C275.543 403.952 278.85 403.573 284.801 400.733C292.021 397.288 299.626 394.325 306.987 391.128L361.735 367.674L506.836 305.491Z"/><path fill="#D5EBF1" transform="scale(1.02219 1.02219)" d="M506.964 317.942C509.434 318.43 517.478 321.812 519.997 322.818C532.161 327.675 544.059 333.204 556.168 338.227L675.478 388.553C691.347 395.294 706.129 401.861 722.272 408.45C700.386 416.88 677.473 426.996 655.93 436.212L559.658 477.125L528.201 490.551C521.511 493.456 513.675 497.133 506.896 499.56L384.156 447.733C392.668 444.661 406.84 437.943 415.671 434.105C433.059 426.392 450.514 418.83 468.034 411.42C475.686 408.176 486.97 402.937 494.643 400.485C504.383 406.606 514.502 407.596 522.569 397.954C533.638 384.724 523.406 363.531 505.65 366.412C493.979 368.306 486.95 377.886 489.126 389.674C472.155 396.225 452.533 405.751 435.524 413.102L398.468 429.087C390.89 432.384 378.532 437.37 372.079 442.078C356.982 435.012 340.957 428.562 325.638 421.898C315.677 417.565 305.417 412.659 295.385 408.681C356.722 383.473 417.264 355.525 478.513 330.031C488.046 326.063 497.511 322.103 506.964 317.942Z"/><path fill="#D5EBF1" transform="scale(1.02219 1.02219)" d="M637.333 456.523C638.317 457.977 637.687 497.192 637.658 501.503C627.561 509.293 615.243 515.956 603.118 519.911C535.561 541.948 444.82 536.965 381.158 506.847C380.898 498.644 381.024 489.872 381.007 481.625L381.032 458.09C397.701 467.057 416.044 472.959 433.17 480.712C457.753 491.839 482.702 501.739 507.423 512.468C511.655 511.046 519.875 507.105 524.131 505.218C533.574 501.037 543.056 496.948 552.578 492.95C579.363 481.603 611.37 469.064 637.333 456.523Z"/><path fill="#D5EBF1" transform="scale(1.02219 1.02219)" d="M637.421 515.525C638.018 516.858 637.622 540.976 637.615 543.853C627.767 549.652 617.317 555.252 606.439 559.257C549.898 580.076 483.839 579.644 426.053 564.423C411.882 560.691 397.01 554.347 383.872 548.428C383.23 548.119 382.32 547.783 381.783 547.327C380.077 545.883 380.988 523.012 381.023 518.918C395.074 527.202 418.452 534.132 435.084 537.506C489.858 548.62 555.946 548.678 609.325 530.194C619.182 526.781 628.817 521.073 637.421 515.525Z"/><path fill="#D5EBF1" transform="scale(1.02219 1.02219)" d="M506.835 377.498C509.742 377.101 512.638 378.302 514.41 380.641C516.182 382.98 516.555 386.093 515.386 388.784C514.217 391.475 511.687 393.327 508.768 393.628C504.357 394.082 500.397 390.916 499.869 386.514C499.342 382.111 502.442 378.099 506.835 377.498Z"/><path fill="#0F3769" transform="scale(1.02219 1.02219)" d="M343.895 893.538C344.456 893.506 345.017 893.481 345.579 893.46C348.19 893.368 348.734 893.257 350.475 894.896C351.304 905.214 350.398 918.157 350.679 928.838C350.882 936.566 350.795 945.15 350.719 952.919C350.702 954.551 350.038 955.495 348.854 956.426C345.49 956.58 344.196 953.192 343.365 950.63C337.234 956.251 333.374 957.521 325.399 955.115C306.253 943.595 315.82 901.858 342.906 919.932C343.086 914.758 342.275 896.902 343.895 893.538Z"/><path fill="white" transform="scale(1.02219 1.02219)" d="M330.442 921.062C336.064 920.339 338.723 922.234 343.435 925.032C343.421 932.155 343.493 939.345 343.099 946.453C340.378 948.071 339.096 948.539 336.211 949.642C323.495 951.764 322.388 940.225 324.07 930.299C324.771 926.159 326.907 923.275 330.442 921.062Z"/><path fill="#7A797A" transform="scale(1.02219 1.02219)" d="M688.024 893.435C690.383 893.508 691.827 893.321 693.375 894.937C693.858 897.276 693.905 953.876 693.693 954.486C693.343 955.493 692.751 955.63 691.875 956.071C689.595 955.6 688.866 954.13 687.428 952.186C681.008 952.791 681.69 959.707 669.18 954.69C650.773 941.377 662.888 904.571 686.665 917.58C686.711 912.512 685.819 896.654 688.024 893.435Z"/><path fill="white" transform="scale(1.02219 1.02219)" d="M675.461 920.09C686.171 919.575 688.284 925.701 687.773 935.216C687.358 942.961 687.212 947.98 679.279 951.149C666.542 952.516 665.971 937.362 668.267 928.385C669.346 924.165 671.707 922.005 675.461 920.09Z"/><path fill="#0F3769" transform="scale(1.02219 1.02219)" d="M493.012 915.062C497.121 914.797 500.489 914.561 504.54 916.088C515.967 920.366 517.905 935.551 513.681 945.571C511.163 951.544 506.516 954.21 500.805 956.35C473.212 959.498 470.058 920.898 493.012 915.062Z"/><path fill="white" transform="scale(1.02219 1.02219)" d="M495.133 921.16C496.643 921.174 499.172 921.125 500.554 921.731C508.326 925.137 509.143 937.04 505.937 943.794C504.113 947.637 502.298 948.812 498.517 950.2C481.972 950.782 482.253 923.997 495.133 921.16Z"/><path fill="#0F3769" transform="scale(1.02219 1.02219)" d="M283.18 898.409C286.085 898.368 287.866 898.374 289.125 901.322C296.439 918.444 302.795 935.952 310.184 953.044C310.559 953.911 310.17 954.018 309.684 954.8C301.866 958.676 298.113 944.514 295.963 939.006L288.474 939.062L274.212 939.14C272.579 943.226 269.937 953.287 266.432 955.507C265.447 956.13 264.322 956.288 263.273 955.701C262.619 955.334 261.957 954.624 261.772 953.89C260.757 949.87 279.759 904.537 283.18 898.409Z"/><path fill="white" transform="scale(1.02219 1.02219)" d="M284.936 909.891C286.63 911.62 293.438 930.176 294.82 933.779L286.715 933.723L276.007 933.795C278.8 925.976 281.672 917.456 284.936 909.891Z"/><path fill="#7A797A" transform="scale(1.02219 1.02219)" d="M718.607 915.582C728.876 914.517 735.71 917.062 738.089 928.515C738.589 930.922 739.072 933.728 738.866 936.18C734.84 940.103 718.525 935.093 713.347 937.867C712.85 938.043 712.48 939.187 712.571 939.64C714.542 949.518 718.739 951.37 727.831 950.981C731.004 950.239 733.948 948.849 736.362 951.496L736.047 952.726C731.706 957.324 721.518 956.703 716.112 954.753C702.364 949.796 702.588 927.448 712.518 918.968C714.543 917.239 716.184 916.575 718.607 915.582Z"/><path fill="white" transform="scale(1.02219 1.02219)" d="M721.927 920.15C730.802 920.883 731.138 924.526 732.266 932.505L723.194 932.509C719.619 932.503 716.045 932.422 712.474 932.265C713.744 925.547 714.358 921.36 721.927 920.15Z"/><path fill="#7A797A" transform="scale(1.02219 1.02219)" d="M558.854 896.717C566.24 896.6 576.353 896.1 583.78 896.863C584.993 896.988 585.138 897.8 585.615 898.758C585.143 902.99 580.784 902.665 577.34 902.628C572.778 902.58 568.234 902.52 563.67 902.503C563.443 909.041 563.585 916.303 563.589 922.897C569.336 922.671 575.741 922.15 581.462 922.69C583.267 922.861 584.44 924.222 584.103 926.089C581.989 928.083 578.357 927.651 575.563 927.578L563.737 927.584C563.769 936.103 564.217 944.845 563.676 953.313C563.533 955.56 559.812 956.095 557.93 955.141C555.661 952.452 557.072 907.427 556.972 900.249C556.947 898.434 557.574 897.771 558.854 896.717Z"/><path fill="#7A797A" transform="scale(1.02219 1.02219)" d="M632.134 915.602C634.016 915.477 636.709 915.253 638.545 915.615C641.923 916.286 644.871 918.33 646.683 921.259C650.58 927.606 649.103 945.16 648.285 952.729C647.943 955.889 646.378 956.37 643.766 954.8C638.568 946.683 650.148 918.638 631.35 921.353L630.703 921.451C616.688 928.381 629.349 953.96 620.765 955.858C619.455 955.543 617.273 954.322 617.436 952.997C618.218 946.658 615.787 919.276 619.129 915.823C622.089 915.269 623.471 917.729 624.202 920.184C627.562 917.76 628.317 917.211 632.134 915.602Z"/><path fill="#0F3769" transform="scale(1.02219 1.02219)" d="M389.329 914.939C391.075 915.261 391.158 915.174 392.675 916.205C393.499 917.603 393.703 918.262 393.316 919.866C392.208 924.452 380.96 954.34 378.696 955.482C377.441 956.115 376.095 956.106 374.787 955.621C370.89 954.175 363.944 933.373 361.982 928.371C360.769 924.956 358.139 919.573 360.312 916.357C361.649 915.696 361.542 915.688 363.013 915.881C368.382 918.841 373.801 939.523 376.304 946.379C378.494 939.791 384.814 918.381 389.329 914.939Z"/><path fill="#0F3769" transform="scale(1.02219 1.02219)" d="M543.767 914.548C552.536 914.214 550.793 918.104 550.435 925.602C548.104 925.462 542.731 924.593 540.954 925.392C532.128 930.501 538.986 946.227 535.44 954.101C533.644 958.088 529.252 955.929 526.616 954.535C525.584 950.276 526.302 923.753 526.214 917.828C526.195 916.569 527.199 915.82 528.047 915.158C530.043 914.771 529.947 914.726 531.876 915.275C534.533 917.75 533.949 920.567 534.096 924.511L537.982 917.149C540.471 915.645 540.989 915.403 543.767 914.548Z"/><path fill="#0F3769" transform="scale(1.02219 1.02219)" d="M432.353 915.085C437.136 914.843 446.919 913.917 447.405 920.758C443.567 925.935 433.465 915.989 429.091 925.01C429.469 932.611 445.049 932.685 447.362 941.106C449.747 949.786 444.327 953.595 437.084 956.038C432.813 956.608 420.479 957.22 421.941 950.162C425.204 947.254 443.673 955.343 440.038 942.509C439.142 939.346 431.892 937.604 428.667 936.167C421.891 933.148 420.166 927.564 423.162 920.845C424.684 917.58 428.918 916.1 432.353 915.085Z"/><path fill="#7A797A" transform="scale(1.02219 1.02219)" d="M768.46 914.953C770.48 914.868 770.062 914.584 771.512 915.471C773.378 923.129 765.494 921.98 761.723 924.937C755.269 929.998 763.407 950.83 757.011 955.188C755.155 955.409 754.655 954.962 752.985 954.124C752.314 950.461 752.261 920.714 752.912 917.051C754.799 915.675 755.23 915.572 757.129 916.648C758.508 918.682 758.058 920.197 758.951 921.511C762.183 918.21 764.468 917.075 768.46 914.953Z"/><path fill="#0F3769" transform="scale(1.02219 1.02219)" d="M461.858 915.007C463.623 915.013 464.342 914.858 465.894 915.714C466.9 916.86 467.143 918.209 467.153 919.865C467.219 930.819 467.548 942.312 466.699 953.203C466.623 954.178 465.662 955.23 465.086 955.884C462.513 956.176 462.157 956.396 460.249 954.977C458.521 950.397 459.654 924.096 459.56 917.487C459.543 916.285 460.835 915.721 461.858 915.007Z"/><path fill="#0F3769" transform="scale(1.02219 1.02219)" d="M404.778 915.483C406.547 915.472 407.351 915.303 408.912 916.144C412.142 919.587 409.867 942.09 410.415 947.797C410.722 950.992 410.454 953.759 408.097 956.02C406.077 956.058 405.039 956.15 403.529 954.882C401.665 952.043 403.178 923.203 403.176 917.818C403.176 916.924 404.155 916.156 404.778 915.483Z"/><path fill="#7A797A" transform="scale(1.02219 1.02219)" d="M597.401 916.066C599.898 916.042 600.837 915.827 602.674 917.308C603.814 923.882 602.469 945.493 602.806 953.266C602.841 954.093 602.375 954.853 601.921 955.52C599.961 955.492 596.56 955.842 596.437 952.961C596.066 943.804 596.862 934.608 596.507 925.434C596.414 923.025 595.965 917.995 597.401 916.066Z"/><path fill="#0F3769" transform="scale(1.02219 1.02219)" d="M404.531 897.309C406.136 896.464 408.073 896.559 409.589 897.555C411.105 898.551 411.96 900.292 411.821 902.101C411.683 903.909 410.573 905.5 408.923 906.254C406.469 907.376 403.567 906.34 402.377 903.918C401.187 901.495 402.142 898.565 404.531 897.309Z"/><path fill="#0F3769" transform="scale(1.02219 1.02219)" d="M461.38 897.296C463.83 896.282 466.638 897.448 467.649 899.899C468.66 902.351 467.49 905.157 465.037 906.165C462.589 907.171 459.789 906.003 458.78 903.557C457.771 901.11 458.934 898.308 461.38 897.296Z"/><path fill="#7A797A" transform="scale(1.02219 1.02219)" d="M598.384 897.771C599.963 897.301 601.673 897.723 602.85 898.875C604.028 900.027 604.489 901.727 604.053 903.316C603.618 904.905 602.355 906.133 600.755 906.524C598.364 907.108 595.944 905.679 595.301 903.304C594.658 900.928 596.026 898.473 598.384 897.771Z"/></svg>