<?xml version="1.0" encoding="utf-8" ?><svg xmlns="http://www.w3.org/2000/svg" xmlns:xlink="http://www.w3.org/1999/xlink" width="3000" height="2591" viewBox="0 0 3000 2591"><path fill="#0F386A" transform="matrix(2.52951 0 0 2.53027 -0.000488281 0)" d="M1044.09 516.503C1043.7 267.587 841.624 66.0714 592.637 66.3097C343.441 66.5482 141.662 268.774 142.048 517.899C142.433 767.024 344.836 968.624 594.033 968.092C843.021 967.56 1044.47 765.419 1044.09 516.503ZM1023.39 503.335C1031.1 741.029 844.546 939.938 606.781 947.546C369.154 955.15 170.327 768.787 162.624 531.23C154.921 293.675 341.257 94.8284 578.878 87.0303C816.636 79.2276 1015.68 265.641 1023.39 503.335Z"/><path fill="#D4EBEF" transform="matrix(2.52951 0 0 2.53027 -0.000488281 0)" d="M963.422 510.026C958.622 305.615 789.22 143.661 584.739 147.993C379.602 152.342 216.965 322.359 221.78 527.429C226.594 732.498 397.03 894.701 602.147 889.422C806.606 884.158 968.221 714.437 963.422 510.026Z"/><path fill="#0F386A" transform="matrix(2.52951 0 0 2.53027 -0.000488281 0)" d="M409.74 284.287C399.244 284.153 383.457 283.951 378.916 284.569C351.054 287.52 327.014 298.765 309.144 320.856C298.477 334.053 291.471 349.824 288.831 366.583C286.982 378.469 287.323 395.891 287.608 410.489C287.689 414.59 287.765 418.467 287.786 421.937L287.86 506.893L287.904 615.561C287.899 620.266 287.852 625.161 287.803 630.149C287.651 645.659 287.491 662.068 288.579 676.432C290.183 697.613 305.315 723.596 322.012 736.932C334.459 746.734 349.005 753.528 364.514 756.781C375.337 758.988 397.202 758.764 412.853 758.604C416.297 758.568 419.44 758.536 422.099 758.534L509.698 758.677C521.301 779.841 532.685 801.125 543.85 822.525C551.993 838.05 559.741 854.339 569.872 868.618C579.081 881.597 599.104 879.985 608.009 867.615C614.587 858.316 619.292 847.434 625.101 837.628C640.012 811.095 653.456 784.398 669.102 758.235L681.3 758.322L749.761 758.606C753.958 758.625 758.103 758.686 762.198 758.747C798.288 759.28 830.46 759.756 859.292 730.925C882.924 707.294 889.631 685.297 889.687 652.388L889.745 459.178L889.769 406.797L889.769 406.674C889.776 369.105 889.782 341.569 860.621 312.453C834.621 286.495 810.539 284.281 775.625 284.366L496.646 284.414L417.222 284.365C415.471 284.36 412.835 284.326 409.74 284.287Z"/><path fill="#D4EBEF" transform="matrix(2.52951 0 0 2.53027 -0.000488281 0)" d="M487.651 304.001C454.962 304.194 421.822 304.39 389.917 303.723C363.552 304.238 348.495 308.279 329.099 327.42C305.798 350.416 306.035 375.605 306.307 404.697C306.334 407.534 306.361 410.409 306.367 413.322L306.43 472.234L306.541 604.553C306.574 623.846 306.553 643.2 306.532 662.451C306.508 683.256 314.564 703.272 329.568 717.781C338.986 726.888 353.782 734.328 366.68 736.899C379.652 739.484 395.353 739.256 409.709 739.047C413.031 738.999 416.281 738.952 419.408 738.941L485.011 738.827C489.13 738.809 493.254 738.734 497.377 738.658C505.17 738.516 512.962 738.374 520.73 738.613C535.614 767.032 550.758 795.316 566.156 823.462C569.774 830.143 581.485 853.632 585.717 857.907C587.62 858.43 587.817 858.379 589.317 857.992C589.492 857.947 589.686 857.897 589.903 857.843C595.953 853.194 609.279 826.325 613.783 818.01L639.183 771.512C644.63 761.57 651.995 747.48 658.512 738.342L668.758 738.406C696.954 738.678 725.151 738.761 753.348 738.656C756.69 738.658 760.451 738.723 764.442 738.792C779.473 739.052 797.765 739.367 809.176 736.572C822.933 733.129 835.539 726.125 845.728 716.265C863.792 698.721 870.262 679.002 870.495 654.351L870.559 467.699C870.633 446.481 870.566 425.264 870.357 404.049C870.326 401.528 870.31 399.059 870.295 396.638C870.125 369.535 869.993 348.351 848.451 326.897C827.232 305.765 807.325 303.522 778.822 303.56L528.783 303.823C515.238 303.838 501.485 303.919 487.651 304.001Z"/><path fill="#0F386A" transform="matrix(2.52951 0 0 2.53027 -0.000488281 0)" d="M624.632 368.86C615.299 364.793 596.079 355.932 587.029 353.777C565.114 363.641 542.022 373.159 519.877 382.632L401.859 433.195L354.809 453.323C345.884 457.136 336.668 460.678 327.983 464.996C325.545 466.209 321.936 467.858 320.863 470.46C320.208 472.049 320 474.197 320.574 475.834C322.415 481.081 387.105 506.767 396.463 511.887L396.28 590.408C396.279 592.182 396.322 594.854 396.373 598.055C396.582 611.131 396.931 633.023 394.992 638.516C390.033 652.557 378.521 667.006 373.367 683.292C377.198 691.884 380.175 694.324 388.346 698.376C399.761 704.036 424.205 700.06 430.054 687.992C433.119 681.669 425.495 668.504 418.799 656.941C414.688 649.843 410.926 643.348 410.202 639.409C408.228 628.676 408.516 616.813 408.79 605.539C408.881 601.78 408.971 598.086 408.975 594.521L408.94 516.481C415.594 519.494 422.345 522.285 429.186 524.849L429.188 618.591C429.165 619.668 429.125 620.762 429.085 621.864C428.803 629.549 428.507 637.631 434.151 643.219C441.895 650.885 454.069 655.117 464.104 658.73C503.791 673.193 545.728 680.509 587.97 680.334C635.977 680.327 708.459 669.058 749.811 638.634C751.001 637.759 751.936 636.082 752.089 634.651C752.907 625.075 752.787 614.512 752.674 604.474C752.643 601.785 752.613 599.134 752.602 596.549L752.435 523.489C773.925 514.205 795.463 505.031 817.048 495.97C825.593 492.368 855.305 480.444 861.002 475.812C863.245 469.64 856.802 467.134 851.43 465.043C850.531 464.694 849.663 464.356 848.869 464.014C791.773 439.416 734.225 415.794 677.062 391.362L624.632 368.86Z"/><path fill="#D4EBEF" transform="matrix(2.52951 0 0 2.53027 -0.000488281 0)" d="M624.797 383.463C614.187 378.843 598.331 371.606 587.359 368.248L500.794 405.027C448.199 428.283 395.366 450.998 342.305 473.172C370.686 485.451 403.335 499.176 431.067 512.05C442.065 505.046 453.3 500.543 465.235 495.407L502.166 479.512C523.507 470.281 544.958 459.53 566.635 451.406C564.855 437.285 571.87 425.924 586.671 424.317C592.655 423.612 598.663 425.431 603.25 429.338C613.496 438.225 612.569 453.777 603.411 463.112C599.545 467.086 594.211 469.291 588.667 469.207C583.028 469.129 577.784 466.692 573.037 463.85C562.23 467.524 552.685 472.15 542.237 476.433C521.749 484.831 501.292 494.535 480.933 503.013C469.554 508.177 456.996 514.079 445.379 518.442C452.791 522.462 462.144 525.684 469.989 529.126C508.667 546.089 548.586 561.325 587.123 578.528C599.026 574.115 611.856 568.161 623.65 563.121L685.794 536.719L802.607 486.992C813.734 482.27 825.716 477.872 836.581 473.129C780.213 448.921 723.721 425.003 667.109 401.372C652.973 395.478 638.868 389.509 624.797 383.463Z"/><path fill="#D4EBEF" transform="matrix(2.52951 0 0 2.53027 -0.000488281 0)" d="M738.47 529.595L737.126 529.273C706.198 544.104 672.958 557.098 641.322 570.48C629.768 575.392 618.245 580.382 606.756 585.45C600.971 587.988 593.648 591.509 587.845 593.559L495.998 554.264C478.38 546.789 458.057 539.592 441.399 530.524L441.384 557.959C441.39 560.791 441.383 563.652 441.377 566.525C441.362 573.402 441.347 580.342 441.489 587.103C504.695 614.588 574.259 624.107 642.527 614.612C662.283 612.035 686.741 606.929 705.414 599.664C717.261 594.967 728.42 588.696 738.588 581.017C738.635 578 738.715 574.56 738.802 570.884C739.125 557.14 739.526 540.108 738.47 529.595Z"/><path fill="#D4EBEF" transform="matrix(2.52951 0 0 2.53027 -0.000488281 0)" d="M738.128 597.814L737.774 597.526C729.308 602.784 718.135 609.563 708.684 612.974C643.059 636.656 563.707 635.542 496.249 620.775C481.025 617.443 453.819 608.66 441.436 600.948C441.409 601.88 441.362 603.091 441.307 604.498C440.966 613.281 440.327 629.717 442.392 633.896L443.288 634.579C456.459 640.279 472.982 647.804 486.846 651.725C557.42 671.683 637.91 672.674 706.875 646.071C717.245 642.072 729.048 635.383 738.634 630.03C738.641 629.415 738.66 628.386 738.685 627.065C738.837 618.942 739.195 599.772 738.128 597.814Z"/><path fill="#D4EBEF" transform="matrix(2.52951 0 0 2.53027 -0.000488281 0)" d="M597.44 443.826C595.968 438.911 590.814 436.092 585.877 437.501C582.627 438.428 580.128 441.033 579.336 444.317C578.543 447.601 579.578 451.058 582.045 453.366C584.515 455.674 588.035 456.477 591.258 455.467C596.157 453.931 598.913 448.744 597.44 443.826Z"/></svg>