<svg width="32" height="39" viewBox="0 0 32 39" fill="none" xmlns="http://www.w3.org/2000/svg">
<path d="M19.6267 17.7201L13.9067 23.4534L11.7067 21.2534C11.5871 21.1138 11.44 21.0005 11.2746 20.9204C11.1092 20.8404 10.929 20.7954 10.7454 20.7884C10.5618 20.7813 10.3787 20.8122 10.2076 20.8792C10.0365 20.9463 9.88107 21.0479 9.75113 21.1779C9.62119 21.3078 9.51951 21.4632 9.45248 21.6343C9.38545 21.8054 9.35451 21.9885 9.3616 22.1722C9.36869 22.3558 9.41366 22.536 9.4937 22.7014C9.57373 22.8668 9.68709 23.0139 9.82666 23.1334L12.96 26.2801C13.0846 26.4037 13.2323 26.5014 13.3948 26.5678C13.5572 26.6341 13.7312 26.6678 13.9067 26.6667C14.2565 26.6653 14.5916 26.5264 14.84 26.2801L21.5067 19.6134C21.6316 19.4895 21.7308 19.342 21.7985 19.1795C21.8662 19.017 21.9011 18.8428 21.9011 18.6667C21.9011 18.4907 21.8662 18.3165 21.7985 18.154C21.7308 17.9915 21.6316 17.844 21.5067 17.7201C21.2568 17.4717 20.9189 17.3324 20.5667 17.3324C20.2144 17.3324 19.8765 17.4717 19.6267 17.7201ZM16 8.66675C13.3629 8.66675 10.785 9.44873 8.59239 10.9138C6.39974 12.3789 4.69077 14.4613 3.6816 16.8976C2.67243 19.334 2.40839 22.0149 2.92286 24.6013C3.43733 27.1877 4.70721 29.5635 6.57191 31.4282C8.43661 33.2929 10.8124 34.5628 13.3988 35.0772C15.9852 35.5917 18.6661 35.3276 21.1024 34.3185C23.5388 33.3093 25.6212 31.6003 27.0863 29.4077C28.5513 27.215 29.3333 24.6372 29.3333 22.0001C29.3333 20.2491 28.9885 18.5153 28.3184 16.8976C27.6483 15.28 26.6662 13.8101 25.4281 12.572C24.19 11.3339 22.7201 10.3518 21.1024 9.68169C19.4848 9.01162 17.751 8.66675 16 8.66675V8.66675ZM16 32.6667C13.8903 32.6667 11.828 32.0412 10.0739 30.8691C8.31979 29.697 6.95262 28.0311 6.14528 26.082C5.33795 24.133 5.12671 21.9882 5.53829 19.9191C5.94986 17.85 6.96576 15.9494 8.45752 14.4576C9.94928 12.9658 11.8499 11.9499 13.919 11.5384C15.9882 11.1268 18.1329 11.338 20.082 12.1454C22.031 12.9527 23.6969 14.3199 24.869 16.074C26.0411 17.8281 26.6667 19.8904 26.6667 22.0001C26.6667 24.8291 25.5429 27.5422 23.5425 29.5426C21.5421 31.5429 18.829 32.6667 16 32.6667V32.6667Z" fill="#6FCF97"/>
</svg>
